<svg id="e7c7c5fc-4c11-43e9-b849-94900512a289" data-name="Layer 1" xmlns="http://www.w3.org/2000/svg" width="92" height="92"><defs><style>.e1fc39a8-4a97-4bca-b85b-b1b2768f5adb{fill:none;stroke:#fff;stroke-linejoin:round;stroke-width:2px}</style></defs><circle cx="46" cy="46" r="46" fill="#007aff"/><circle class="e1fc39a8-4a97-4bca-b85b-b1b2768f5adb" cx="46" cy="46" r="20"/><path class="e1fc39a8-4a97-4bca-b85b-b1b2768f5adb" d="M55.69 28.5s2.33 10.59-1.32 11-5.8 2.41-6.13 5.57 1.82 5.57 0 9.75-3.49-5.27-7-7.26-9.13-1.78-9-4.05-6.06-.87-5.86-1.75m39.23 8.17s-2-3.6-4.77-2.41S58 52.86 55.53 54s-6 5.81-3.65 6.81-2.47 1.9-2.31 4.85M37.5 64.11s3.77-1.13 1.44-4.2-3.64-2.3-4.31-5.09S29 56.48 29 56.48"/></svg>