<svg id="a9ef8228-2267-4216-b0d3-ce70dde8c165" data-name="Layer 1" xmlns="http://www.w3.org/2000/svg" width="92" height="92"><defs><style>.a3f95f6e-626b-493f-9975-9a5352280894,.ea32362e-c7f0-4886-8dcf-89f754a50ec9{fill:none;stroke:#fff;stroke-linejoin:round;stroke-width:2px}.ea32362e-c7f0-4886-8dcf-89f754a50ec9{stroke-linecap:round}</style></defs><circle cx="46" cy="46" r="46" fill="#007aff"/><rect class="a3f95f6e-626b-493f-9975-9a5352280894" x="26" y="37.3" width="40" height="13.55" rx="4"/><path class="ea32362e-c7f0-4886-8dcf-89f754a50ec9" d="M32.45 44.07h18.71"/><circle class="ea32362e-c7f0-4886-8dcf-89f754a50ec9" cx="58.58" cy="44.07" r="1.68"/><path class="ea32362e-c7f0-4886-8dcf-89f754a50ec9" d="M50.21 30.44h4.42a5.49 5.49 0 0 1 3.57 1.41l6.61 6.61"/><path class="ea32362e-c7f0-4886-8dcf-89f754a50ec9" d="M27.16 38.49l6.57-6.64a4.89 4.89 0 0 1 3.57-1.41h13.08"/><path class="a3f95f6e-626b-493f-9975-9a5352280894" d="M46 50.85v4.19"/><path class="ea32362e-c7f0-4886-8dcf-89f754a50ec9" d="M56.55 59.23h-6.48m-8.3 0H35.3m12.99-1.93h-.16v-.66a1.6 1.6 0 0 0-1.6-1.6h-1.06a1.6 1.6 0 0 0-1.6 1.6v.66h-.16a1.79 1.79 0 0 0-1.78 1.79v.69a1.78 1.78 0 0 0 1.78 1.78h4.58a1.78 1.78 0 0 0 1.78-1.78v-.69a1.79 1.79 0 0 0-1.78-1.79z"/></svg>